<svg xmlns="http://www.w3.org/2000/svg" width="28" height="27.07" viewBox="0 0 28 27.07">
  <path id="Subtraction_26" data-name="Subtraction 26" d="M7.636,27.071V19.992h-4.5A3.158,3.158,0,0,1,0,16.821V3.218A3.158,3.158,0,0,1,3.137.046L24.863,0A3.158,3.158,0,0,1,28,3.172v13.6a3.158,3.158,0,0,1-3.137,3.172L14,19.992,7.637,27.069ZM5.727,13.513a.643.643,0,0,0,0,1.287H22.273a.643.643,0,0,0,0-1.287Zm0-3.861a.643.643,0,0,0,0,1.287H22.273a.643.643,0,0,0,0-1.287Zm0-3.861a.643.643,0,0,0,0,1.287H14a.643.643,0,0,0,0-1.287Z" fill="#ec4e6e" opacity="0.483"/>
</svg>
